<svg id="visual" viewBox="0 0 900 600" width="900" height="600" xmlns="http://www.w3.org/2000/svg" xmlns:xlink="http://www.w3.org/1999/xlink" version="1.1"><rect x="0" y="0" width="900" height="600" fill="#17176e"></rect><path d="M0 464L129 464L129 425L257 425L257 363L386 363L386 461L514 461L514 447L643 447L643 406L771 406L771 516L900 516L900 423L900 601L900 601L771 601L771 601L643 601L643 601L514 601L514 601L386 601L386 601L257 601L257 601L129 601L129 601L0 601Z" fill="#0a0514" stroke-linecap="square" stroke-linejoin="miter"></path></svg>