<svg id="visual" viewBox="0 0 900 600" width="900" height="600" xmlns="http://www.w3.org/2000/svg" xmlns:xlink="http://www.w3.org/1999/xlink" version="1.1"><rect x="0" y="0" width="900" height="600" fill="#17176e"></rect><path d="M0 444L7.5 449.5C15 455 30 466 45 433C60 400 75 323 90 302.7C105 282.3 120 318.7 135 329.7C150 340.7 165 326.3 180 333.3C195 340.3 210 368.7 225 368.2C240 367.7 255 338.3 270 340C285 341.7 300 374.3 315 372.5C330 370.7 345 334.3 360 309C375 283.7 390 269.3 405 274.5C420 279.7 435 304.3 450 339C465 373.7 480 418.3 495 418C510 417.7 525 372.3 540 350.2C555 328 570 329 585 340.5C600 352 615 374 630 362.2C645 350.3 660 304.7 675 281.8C690 259 705 259 720 262.5C735 266 750 273 765 292.2C780 311.3 795 342.7 810 339.3C825 336 840 298 855 302C870 306 885 352 892.5 375L900 398L900 601L892.5 601C885 601 870 601 855 601C840 601 825 601 810 601C795 601 780 601 765 601C750 601 735 601 720 601C705 601 690 601 675 601C660 601 645 601 630 601C615 601 600 601 585 601C570 601 555 601 540 601C525 601 510 601 495 601C480 601 465 601 450 601C435 601 420 601 405 601C390 601 375 601 360 601C345 601 330 601 315 601C300 601 285 601 270 601C255 601 240 601 225 601C210 601 195 601 180 601C165 601 150 601 135 601C120 601 105 601 90 601C75 601 60 601 45 601C30 601 15 601 7.5 601L0 601Z" fill="#0a0514" stroke-linecap="round" stroke-linejoin="miter"></path></svg>